{
    "asset" : {
        "generator" : "Khronos glTF Blender I/O v3.3.32",
        "version" : "2.0"
    },
    "scene" : 0,
    "scenes" : [
        {
            "name" : "Scene",
            "nodes" : [
                0
            ]
        }
    ],
    "nodes" : [
        {
            "mesh" : 0,
            "name" : "AnimatedMorphSphere",
            "rotation" : [
                0,
                0.7071066498756409,
                -0.70710688829422,
                0
            ],
            "scale" : [
                99.99999237060547,
                99.99999237060547,
                99.99999237060547
            ]
        }
    ],
    "animations" : [
        {
            "channels" : [
                {
                    "sampler" : 0,
                    "target" : {
                        "node" : 0,
                        "path" : "weights"
                    }
                }
            ],
            "name" : "Globe",
            "samplers" : [
                {
                    "input" : 7,
                    "interpolation" : "LINEAR",
                    "output" : 8
                }
            ]
        }
    ],
    "materials" : [
        {
            "name" : "No Name",
            "pbrMetallicRoughness" : {
                "metallicFactor" : 0,
                "roughnessFactor" : 0.5
            }
        }
    ],
    "meshes" : [
        {
            "extras" : {
                "targetNames" : [
                    "Ship",
                    "Blob"
                ]
            },
            "name" : "Sphere",
            "primitives" : [
                {
                    "attributes" : {
                        "POSITION" : 0,
                        "NORMAL" : 1
                    },
                    "indices" : 2,
                    "material" : 0,
                    "targets" : [
                        {
                            "POSITION" : 3,
                            "NORMAL" : 4
                        },
                        {
                            "POSITION" : 5,
                            "NORMAL" : 6
                        }
                    ]
                }
            ],
            "weights" : [
                0,
                0
            ]
        }
    ],
    "accessors" : [
        {
            "bufferView" : 0,
            "componentType" : 5126,
            "count" : 2776,
            "max" : [
                0.020297741517424583,
                0.018476665019989014,
                0.012706976383924484
            ],
            "min" : [
                -0.002084171399474144,
                -0.009731220081448555,
                -0.016711466014385223
            ],
            "type" : "VEC3"
        },
        {
            "bufferView" : 1,
            "componentType" : 5126,
            "count" : 2776,
            "type" : "VEC3"
        },
        {
            "bufferView" : 2,
            "componentType" : 5123,
            "count" : 2880,
            "type" : "SCALAR"
        },
        {
            "bufferView" : 3,
            "componentType" : 5126,
            "count" : 2776,
            "max" : [
                0.03132651746273041,
                0.022624697536230087,
                0.008465131744742393
            ],
            "min" : [
                -0.03132651373744011,
                -0.022857651114463806,
                -1.1641532182693481e-10
            ],
            "type" : "VEC3"
        },
        {
            "bufferView" : 4,
            "componentType" : 5126,
            "count" : 2776,
            "type" : "VEC3"
        },
        {
            "bufferView" : 5,
            "componentType" : 5126,
            "count" : 2776,
            "max" : [
                0.00878109224140644,
                9.313225746154785e-10,
                5.820766091346741e-11
            ],
            "min" : [
                -0.008781091310083866,
                -0.000765584409236908,
                -1.1641532182693481e-10
            ],
            "type" : "VEC3"
        },
        {
            "bufferView" : 6,
            "componentType" : 5126,
            "count" : 2776,
            "type" : "VEC3"
        },
        {
            "bufferView" : 7,
            "componentType" : 5126,
            "count" : 173,
            "max" : [
                7.166666666666667
            ],
            "min" : [
                0
            ],
            "type" : "SCALAR"
        },
        {
            "bufferView" : 8,
            "componentType" : 5126,
            "count" : 346,
            "type" : "SCALAR"
        }
    ],
    "bufferViews" : [
        {
            "buffer" : 0,
            "byteLength" : 33312,
            "byteOffset" : 0,
            "target" : 34962
        },
        {
            "buffer" : 0,
            "byteLength" : 33312,
            "byteOffset" : 33312,
            "target" : 34962
        },
        {
            "buffer" : 0,
            "byteLength" : 5760,
            "byteOffset" : 66624,
            "target" : 34963
        },
        {
            "buffer" : 0,
            "byteLength" : 33312,
            "byteOffset" : 72384,
            "target" : 34962
        },
        {
            "buffer" : 0,
            "byteLength" : 33312,
            "byteOffset" : 105696,
            "target" : 34962
        },
        {
            "buffer" : 0,
            "byteLength" : 33312,
            "byteOffset" : 139008,
            "target" : 34962
        },
        {
            "buffer" : 0,
            "byteLength" : 33312,
            "byteOffset" : 172320,
            "target" : 34962
        },
        {
            "buffer" : 0,
            "byteLength" : 692,
            "byteOffset" : 205632
        },
        {
            "buffer" : 0,
            "byteLength" : 1384,
            "byteOffset" : 206324
        }
    ],
    "buffers" : [
        {
            "byteLength" : 207708,
            "uri" : "data:application/octet-stream;base64,"
        }
    ]
}
